<svg width="100" height="86" viewBox="0 0 100 86" fill="none" xmlns="http://www.w3.org/2000/svg">
<path d="M83.9375 29.6341L90.45 24.0334L84.5583 18.9666L77.4416 25.0833C73.0666 22.8258 67.9666 21.5 62.5 21.5C46.4208 21.5 33.3333 32.7516 33.3333 46.5833C33.3333 60.415 46.4208 71.6666 62.5 71.6666C78.5791 71.6666 91.6666 60.415 91.6666 46.5833C91.6633 40.2982 88.9032 34.2455 83.9375 29.6341ZM62.5 64.5C51.0125 64.5 41.6666 56.4626 41.6666 46.5833C41.6666 36.7041 51.0125 28.6666 62.5 28.6666C73.9875 28.6666 83.3333 36.7041 83.3333 46.5833C83.3333 56.4626 73.9875 64.5 62.5 64.5Z" fill="#1AA090"/>
<path d="M58.3333 35.8333H66.6666V50.1667H58.3333V35.8333ZM54.1666 10.75H70.8333V17.9167H54.1666V10.75ZM12.5 28.6667H29.1666V35.8333H12.5V28.6667ZM12.5 57.3333H29.1666V64.5H12.5V57.3333ZM8.33331 43H24.9583V50.1667H8.33331V43Z" fill="#1AA090"/>
</svg>
