<svg width="60" height="50" viewBox="0 0 60 50" fill="none" xmlns="http://www.w3.org/2000/svg">
<path d="M52.6666 22.5834C52.6666 26.8851 51.1711 31.0903 48.3691 34.667C45.5671 38.2438 41.5846 41.0316 36.9251 42.6778C32.2655 44.324 27.1384 44.7547 22.1918 43.9155C17.2453 43.0762 12.7017 41.0047 9.13541 37.9629C5.56917 34.9212 3.14054 31.0457 2.15661 26.8266C1.17269 22.6075 1.67767 18.2343 3.60771 14.26C5.53774 10.2857 8.80614 6.88883 12.9996 4.49891C17.193 2.10899 22.1232 0.833374 27.1666 0.833374M35.6666 8.08337H52.6666M35.6666 15.3334H44.1666M49.635 46.0009C51.1366 49.8675 54.565 50.2542 57.2 46.8709C59.6083 43.7775 58.0216 41.24 53.6583 41.24C50.4283 41.2159 48.615 43.3667 49.635 46.0009V46.0009Z" stroke="#1AA090" stroke-width="1.5" stroke-linecap="round" stroke-linejoin="round"/>
</svg>
